# xmcd CD database file
#
# Track frame offsets:
#	150
#	20769
#	40183
#	53989
#	65851
#	93981
#	111119
#	143559
#
# Disc length: 2465 seconds
#
# Revision: 0
# Processed by: cddbd v1.5.1PL0 Copyright (c) Steve Scherf et al.
# Submitted via: CDex 1.51
#
DISCID=6e099f08
DTITLE=Developers Music Label - Piece
DYEAR=1900
DGENRE=エレクトロニック (一般)
TTITLE0=Snowmemories3
TTITLE1=Air
TTITLE2=Hyper Hip☆Pop
TTITLE3=Divine
TTITLE4=Hallucination(Rebirth Origin)
TTITLE5=Take The "Ginza-Line"
TTITLE6=Flood
TTITLE7=Kiss Mark
EXTD=
EXTT0=
EXTT1=
EXTT2=
EXTT3=
EXTT4=
EXTT5=
EXTT6=
EXTT7=
PLAYORDER=
